<?xml version="1.0" encoding="UTF-8"?><svg id="Layer_1" xmlns="http://www.w3.org/2000/svg" viewBox="0 0 678.42 90.87"><defs><style>.cls-1{fill:#e60f8a;}.cls-2{fill:#231f20;}.cls-3{fill:#2d398d;}.cls-4{fill:#24a8df;}</style></defs><path class="cls-2" d="m177.23,70.15c-16.81,0-27.5-10.95-27.5-28.15C149.73,18.66,165.11.15,187.27.15c15.77,0,26.07,8.86,25.55,24.24,0,.52-.39.91-.91.91h-9.38c-.52,0-.91-.39-.91-.91.26-10.04-5.47-15.38-15.25-15.38-16.03,0-24.76,15.9-24.76,33.63,0,11.99,5.47,18.77,16.55,18.77,9.91,0,17.07-6.39,19.81-16.42.13-.52.65-.91,1.17-.91h9.52c.52,0,.78.39.65.91-4.17,14.6-15.25,25.16-32.06,25.16Z"/><path class="cls-2" d="m251.27.15c16.94,0,28.02,10.95,28.02,28.28,0,22.81-15.25,41.71-37.15,41.71-16.81,0-28.02-10.95-28.02-28.28C214.12,18.53,229.37.15,251.27.15Zm-8.73,61.26c15.12,0,24.76-14.08,24.76-33.5,0-12.12-6.13-19.16-16.68-19.16-14.99,0-24.63,14.47-24.63,33.89,0,11.86,5.73,18.77,16.55,18.77Z"/><path class="cls-2" d="m295.19,42.51l-5.47,25.29c0,.52-.52.91-1.04.91h-10.69c-.52,0-.78-.39-.65-.91l6.26-25.29,8.86-40.01c.13-.52.65-.91,1.17-.91h9.91c.52,0,.78.39.65.91l-2.74,10.43C306.66,5.76,313.83.02,323.22.02s15.64,5.21,17.2,14.08C346.81,4.85,354.5.02,363.23.02c13.43,0,20.99,10.17,17.21,26.59l-3.39,15.9-5.6,25.29c-.13.52-.65.91-1.17.91h-10.56c-.39,0-.78-.39-.65-.91l6.39-25.29,3.39-15.38c2.87-11.73-1.7-17.6-9.12-17.6s-14.99,6.52-19.94,17.99l-3.39,14.99-5.6,25.29c0,.52-.52.91-1.04.91h-10.3c-.39,0-.78-.39-.65-.91l6-25.29,3.65-15.38c2.87-11.73-1.69-17.6-9.25-17.6-8.08,0-16.03,7.43-20.98,20.33l-3,12.64Z"/><path class="cls-2" d="m415.24,70.02c-10.3,0-17.86-5.21-21.12-14.47l-7.69,34.41c-.13.52-.65.91-1.17.91h-10.3c-.52,0-.78-.39-.65-.91l11.99-50.44,8.08-37.02c.13-.52.65-.91,1.17-.91h10.04c.52,0,.78.39.65.91l-1.96,7.3c5.21-5.87,11.86-9.51,20.2-9.51,16.68,0,25.94,14.08,23.2,34.54-1.83,17.21-12.51,35.19-32.46,35.19Zm-2.08-8.73c13.69,0,21.25-12.64,22.68-27.76,1.83-15.25-3.52-24.63-15.25-24.63-12.77,0-20.99,13.03-22.42,28.02-1.96,15.51,4.17,24.37,14.99,24.37Z"/><path class="cls-2" d="m447.18,68.71c-.52,0-.78-.39-.65-.91l7.95-33.37,7.04-31.93c.13-.52.65-.91,1.17-.91h9.91c.52,0,.78.39.65.91l-3,11.86c6.78-8.73,15.77-13.43,24.89-13.43,1.43,0,2.87.13,4.04.39.52.13.78.65.65,1.17l-1.69,7.82c-.13.52-.65.78-1.17.65-.91-.13-2.22-.26-3.52-.26-10.69,0-21.51,7.56-26.72,21.11l-8.21,35.97c-.13.52-.65.91-1.17.91h-10.17Z"/><path class="cls-2" d="m550.41,45.38c.52,0,.78.39.65.91-3.78,13.69-13.95,23.85-32.19,23.85s-28.15-12.12-28.15-28.67c0-19.55,12.38-41.32,37.28-41.32,19.42,0,30.89,13.69,26.07,35.71-.13.52-.65.91-1.17.91h-50.18c-.13,1.56-.26,3-.26,4.56,0,12.38,5.08,20.07,16.94,20.07,10.56,0,17.47-5.21,20.33-15.12.13-.52.65-.91,1.17-.91h9.51Zm-23.46-36.63c-11.73,0-19.42,8.47-22.68,19.68h38.71c2.09-10.69-4.04-19.68-16.03-19.68Z"/><path class="cls-2" d="m612.32,48.64c0,12.38-11.47,21.51-28.02,21.51-18.12,0-31.02-9.12-29.72-23.85.13-.52.52-.91,1.04-.91h9.64c.52,0,.91.39.91.91-.52,9.78,6.65,15.64,18.77,15.64,9.65,0,15.51-4.95,15.51-11.34,0-14.6-38.58-7.17-38.58-30.11,0-10.95,10.69-20.33,27.89-20.33,13.95,0,27.24,7.04,26.72,20.72,0,.52-.39.91-.91.91h-9.25c-.52,0-.91-.39-.91-.91,0-7.95-7.04-12.64-16.29-12.64s-15.25,4.56-15.25,11.08c0,14.47,38.45,7.04,38.45,29.33Z"/><path class="cls-2" d="m674.23,48.64c0,12.38-11.47,21.51-28.02,21.51-18.12,0-31.02-9.12-29.72-23.85.13-.52.52-.91,1.04-.91h9.64c.52,0,.91.39.91.91-.52,9.78,6.65,15.64,18.77,15.64,9.65,0,15.51-4.95,15.51-11.34,0-14.6-38.58-7.17-38.58-30.11,0-10.95,10.69-20.33,27.89-20.33,13.95,0,27.24,7.04,26.72,20.72,0,.52-.39.91-.91.91h-9.25c-.52,0-.91-.39-.91-.91,0-7.95-7.04-12.64-16.29-12.64s-15.25,4.56-15.25,11.08c0,14.47,38.45,7.04,38.45,29.33Z"/><path class="cls-1" d="m95.42,67.06c-9.58-3.33-15.22-10.31-15.58-20.75l-.22,21.21c0,.52.51,1.04,1.02,1.04h13.76c.52,0,1.04-.51,1.04-1.04v-.46Zm-14.55-21.79h12.99c.51,0,1.02.51,1.02,1.04.04.79.12,1.53.24,2.24l-.08-4.7v-6.22c-7.61-2.49-13.66-7.07-13.66-17.18,0-6.41,2.44-11.36,6.85-14.78-3.49-3.32-8.22-4.89-14.02-4.89-8.62,0-15.18,3.61-20.45,13.12C50.67,4.89,43.98.77,34.72.77s-15.43,4.5-19.8,11.19l.38-8.62c0-.51-.51-1.02-1.02-1.02H1.29c-.51,0-1.02.51-1.02,1.02l.13,40.51-.39,23.66c0,.52.52,1.04,1.04,1.04h14.01c.52,0,1.04-.51,1.04-1.04l-.39-23.66v-10.66c1.29-13.12,7.46-20.32,14.02-20.32s10.68,4.24,10.68,14.27v16.71l-.39,23.66c0,.52.52,1.04,1.04,1.04h13.76c.51,0,1.02-.51,1.02-1.04l-.25-23.66v-13.63c1.93-11.19,7.71-17.36,13.63-17.36,6.56,0,10.66,4.24,10.66,14.27v16.71l-.03,2.45c0-.52.52-1.04,1.04-1.04Z"/><path class="cls-4" d="m96.17,19.3c0-6.43,4.89-9.26,12.48-9.26,8.75,0,13.64,3.86,14.67,10.68.13.64.64,1.02,1.15,1.02h12.34c.52,0,1.04-.51,1.04-1.02-1.04-13.89-12.48-20.71-28.94-20.71-8.78,0-15.87,1.93-20.67,5.67,4.41,4.18,6.81,11.11,6.81,21.09v10.87c12.91,4.25,30.33,2.52,30.33,11.75,0,6.18-5.27,9.64-14.02,9.64-9.48,0-15.02-3.31-16.23-10.48l.3,18.51c4.33,1.51,9.47,2.27,15.28,2.27,16.86,0,29.45-7.73,29.45-21.22,0-28.03-43.98-14.53-43.98-28.81Z"/><path class="cls-3" d="m95.42,67.06c-9.58-3.33-15.22-10.31-15.58-20.75,0-.52.52-1.04,1.04-1.04h12.99c.51,0,1.02.51,1.02,1.04.04.79.12,1.53.24,2.24l.3,18.51Z"/><path class="cls-3" d="m95.04,26.76v10.87c-7.61-2.49-13.66-7.07-13.66-17.18,0-6.41,2.44-11.36,6.85-14.78,4.41,4.18,6.81,11.11,6.81,21.09Z"/></svg>