<?xml version="1.0" encoding="UTF-8"?><svg id="Layer_1" xmlns="http://www.w3.org/2000/svg" viewBox="0 0 681.79 138.55"><defs><style>.cls-1{fill:#e60f8a;}.cls-2{fill:#2d398d;}.cls-3{fill:#24a8df;}.cls-4{letter-spacing:-.02em;}.cls-5{fill:#231f20;font-family:FormaDJRDisplay-Italic, 'Forma DJR Display';font-size:130.34px;font-style:italic;}.cls-6{letter-spacing:0em;}</style></defs><text class="cls-5" transform="translate(151.43 110.79)"><tspan x="0" y="0">comp</tspan><tspan class="cls-4" x="301.09" y="0">r</tspan><tspan class="cls-6" x="340.85" y="0">e</tspan><tspan x="406.54" y="0">ss</tspan></text><path class="cls-1" d="m95.42,109.14c-9.58-3.33-15.22-10.31-15.58-20.75l-.22,21.21c0,.52.51,1.04,1.02,1.04h13.76c.52,0,1.04-.51,1.04-1.04v-.46Zm-14.55-21.79h12.99c.51,0,1.02.51,1.02,1.04.04.79.12,1.53.24,2.24l-.08-4.7v-6.22c-7.61-2.49-13.66-7.07-13.66-17.18,0-6.41,2.44-11.36,6.85-14.78-3.49-3.32-8.22-4.89-14.02-4.89-8.62,0-15.18,3.61-20.45,13.12-3.08-9-9.77-13.12-19.03-13.12s-15.43,4.5-19.8,11.19l.38-8.62c0-.51-.51-1.02-1.02-1.02H1.29c-.51,0-1.02.51-1.02,1.02l.13,40.51-.39,23.66c0,.52.52,1.04,1.04,1.04h14.01c.52,0,1.04-.51,1.04-1.04l-.39-23.66v-10.66c1.29-13.12,7.46-20.32,14.02-20.32s10.68,4.24,10.68,14.27v16.71l-.39,23.66c0,.52.52,1.04,1.04,1.04h13.76c.51,0,1.02-.51,1.02-1.04l-.25-23.66v-13.63c1.93-11.19,7.71-17.36,13.63-17.36,6.56,0,10.66,4.24,10.66,14.27v16.71l-.03,2.45c0-.52.52-1.04,1.04-1.04Z"/><path class="cls-3" d="m96.17,61.37c0-6.43,4.89-9.26,12.48-9.26,8.75,0,13.64,3.86,14.67,10.68.13.64.64,1.02,1.15,1.02h12.34c.52,0,1.04-.51,1.04-1.02-1.04-13.89-12.48-20.71-28.94-20.71-8.78,0-15.87,1.93-20.67,5.67,4.41,4.18,6.81,11.11,6.81,21.09v10.87c12.91,4.25,30.33,2.52,30.33,11.75,0,6.18-5.27,9.64-14.02,9.64-9.48,0-15.02-3.31-16.23-10.48l.3,18.51c4.33,1.51,9.47,2.27,15.28,2.27,16.86,0,29.45-7.73,29.45-21.22,0-28.03-43.98-14.53-43.98-28.81Z"/><path class="cls-2" d="m95.42,109.14c-9.58-3.33-15.22-10.31-15.58-20.75,0-.52.52-1.04,1.04-1.04h12.99c.51,0,1.02.51,1.02,1.04.04.79.12,1.53.24,2.24l.3,18.51Z"/><path class="cls-2" d="m95.04,68.84v10.87c-7.61-2.49-13.66-7.07-13.66-17.18,0-6.41,2.44-11.36,6.85-14.78,4.41,4.18,6.81,11.11,6.81,21.09Z"/></svg>